<?xml version="1.0" encoding="iso-8859-1"?>
<!-- Generator: Adobe Illustrator 19.0.0, SVG Export Plug-In . SVG Version: 6.00 Build 0)  -->
<svg version="1.1" id="Layer_1" xmlns="http://www.w3.org/2000/svg" xmlns:xlink="http://www.w3.org/1999/xlink" x="0px" y="0px"
	 viewBox="0 0 480 480" style="enable-background:new 0 0 480 480;" xml:space="preserve">
<rect x="8" y="8" style="fill:#FFFFFF;" width="464" height="464"/>
<polyline style="fill:#E8EFEE;" points="8,8 472,8 472,472 "/>
<g>
	<path style="fill:#B1BCBC;" d="M480,468c0,6.4-5.6,12-12,12H12c-6.4,0-12-5.6-12-12V12C0,5.6,5.6,0,12,0h456c6.4,0,12,5.6,12,12
		V468z M24,456h432V24H24V456z"/>
	<path style="fill:#B1BCBC;" d="M376,112H104c-4.8,0-8-3.2-8-8s3.2-8,8-8h272c4.8,0,8,3.2,8,8S380.8,112,376,112z"/>
	<path style="fill:#B1BCBC;" d="M312,168H104c-4.8,0-8-3.2-8-8s3.2-8,8-8h208c4.8,0,8,3.2,8,8S316.8,168,312,168z"/>
	<path style="fill:#B1BCBC;" d="M376,224H104c-4.8,0-8-3.2-8-8s3.2-8,8-8h272c4.8,0,8,3.2,8,8S380.8,224,376,224z"/>
	<path style="fill:#B1BCBC;" d="M312,280H104c-4.8,0-8-3.2-8-8s3.2-8,8-8h208c4.8,0,8,3.2,8,8S316.8,280,312,280z"/>
	<path style="fill:#B1BCBC;" d="M376,336H104c-4.8,0-8-3.2-8-8s3.2-8,8-8h272c4.8,0,8,3.2,8,8S380.8,336,376,336z"/>
	<path style="fill:#B1BCBC;" d="M312,392H104c-4.8,0-8-3.2-8-8s3.2-8,8-8h208c4.8,0,8,3.2,8,8S316.8,392,312,392z"/>
</g>
<g>
</g>
<g>
</g>
<g>
</g>
<g>
</g>
<g>
</g>
<g>
</g>
<g>
</g>
<g>
</g>
<g>
</g>
<g>
</g>
<g>
</g>
<g>
</g>
<g>
</g>
<g>
</g>
<g>
</g>
</svg>
