<svg xmlns="http://www.w3.org/2000/svg" xmlns:xlink="http://www.w3.org/1999/xlink" id="Layer_1" x="0" y="0" version="1.1" viewBox="0 0 48 48" xml:space="preserve" style="enable-background:new 0 0 48 48"><style type="text/css">.st0{fill:#d6d6d6}.st2{fill:#686868}</style><path d="M27,0H10.7C8.11,0,6,2.11,6,4.7V43.3c0,2.6,2.11,4.7,4.7,4.7H37.3c2.6,0,4.7-2.11,4.7-4.7V15L27,0z" class="st0"/><g><defs><path id="SVGID_1_" d="M27,0H10.7C8.11,0,6,2.11,6,4.7V43.3c0,2.6,2.11,4.7,4.7,4.7H37.3c2.6,0,4.7-2.11,4.7-4.7V15L27,0z"/></defs><clipPath id="SVGID_00000047054872850263839830000004357803166400085421_"><use xlink:href="#SVGID_1_" style="overflow:visible"/></clipPath><path style="clip-path:url(#SVGID_00000047054872850263839830000004357803166400085421_);fill:#a5a5a5" d="M43,16H30.5 c-1.38,0-2.5-1.12-2.5-2.5V1L43,16z"/></g><path d="M42,15H29.5c-1.38,0-2.5-1.12-2.5-2.5V0L42,15z" class="st2"/></svg>