<?xml version="1.0" encoding="utf-8"?>
<!-- Generator: Adobe Illustrator 26.0.1, SVG Export Plug-In . SVG Version: 6.00 Build 0)  -->
<svg version="1.1" id="Layer_1" xmlns="http://www.w3.org/2000/svg" xmlns:xlink="http://www.w3.org/1999/xlink" x="0px" y="0px"
	 viewBox="0 0 48 48" style="enable-background:new 0 0 48 48;" xml:space="preserve">
<style type="text/css">
	.st0{fill:#056B5C;}
	.st1{fill:#0D9B79;}
</style>
<path class="st0" d="M16.34,25.91c-1.41,0-2.82-0.54-3.89-1.61L1.78,13.63c-2.14-2.14-2.14-5.63,0-7.78l4.16-4.16
	c2.14-2.15,5.63-2.14,7.78,0l10.67,10.67c2.14,2.14,2.14,5.63,0,7.78h0l-4.16,4.16C19.16,25.38,17.75,25.91,16.34,25.91z
	 M10.16,4.14c-0.56,0-1.12,0.21-1.55,0.64L4.87,8.52c-0.85,0.85-0.85,2.24,0,3.09l9.6,9.6c0.85,0.85,2.24,0.85,3.09,0l3.74-3.74
	c0.85-0.85,0.85-2.24,0-3.09l-9.6-9.6C11.28,4.35,10.72,4.14,10.16,4.14z"/>
<path class="st0" d="M38.34,47.91c-1.41,0-2.82-0.54-3.89-1.61L23.78,35.63c-2.14-2.14-2.14-5.63,0-7.78l4.16-4.16
	c2.14-2.15,5.63-2.14,7.78,0l10.67,10.67c2.14,2.14,2.14,5.63,0,7.78h0l-4.16,4.16C41.16,47.38,39.75,47.91,38.34,47.91z
	 M32.16,26.14c-0.56,0-1.12,0.21-1.55,0.64l-3.74,3.74c-0.85,0.85-0.85,2.24,0,3.09l9.6,9.6c0.85,0.85,2.24,0.85,3.09,0l3.74-3.74
	c0.85-0.85,0.85-2.24,0-3.09l-9.6-9.6C33.28,26.35,32.72,26.14,32.16,26.14z"/>
<path class="st0" d="M16.34,25.91c-1.41,0-2.82-0.54-3.89-1.61L1.78,13.63c-2.14-2.14-2.14-5.63,0-7.78l4.16-4.16
	c2.14-2.15,5.63-2.14,7.78,0l10.67,10.67c2.14,2.14,2.14,5.63,0,7.78h0l-4.16,4.16C19.16,25.38,17.75,25.91,16.34,25.91z
	 M10.16,4.14c-0.56,0-1.12,0.21-1.55,0.64L4.87,8.52c-0.85,0.85-0.85,2.24,0,3.09l9.6,9.6c0.85,0.85,2.24,0.85,3.09,0l3.74-3.74
	c0.85-0.85,0.85-2.24,0-3.09l-9.6-9.6C11.28,4.35,10.72,4.14,10.16,4.14z"/>
<path class="st0" d="M38.34,47.91c-1.41,0-2.82-0.54-3.89-1.61L23.78,35.63c-2.14-2.14-2.14-5.63,0-7.78l4.16-4.16
	c2.14-2.15,5.63-2.14,7.78,0l10.67,10.67c2.14,2.14,2.14,5.63,0,7.78h0l-4.16,4.16C41.16,47.38,39.75,47.91,38.34,47.91z
	 M32.16,26.14c-0.56,0-1.12,0.21-1.55,0.64l-3.74,3.74c-0.85,0.85-0.85,2.24,0,3.09l9.6,9.6c0.85,0.85,2.24,0.85,3.09,0l3.74-3.74
	c0.85-0.85,0.85-2.24,0-3.09l-9.6-9.6C33.28,26.35,32.72,26.14,32.16,26.14z"/>
<path class="st1" d="M30,32.5c-0.64,0-1.28-0.24-1.77-0.73l-12-12c-0.98-0.98-0.98-2.56,0-3.54c0.98-0.98,2.56-0.98,3.54,0l12,12
	c0.98,0.98,0.98,2.56,0,3.54C31.28,32.26,30.64,32.5,30,32.5z"/>
<path class="st1" d="M41.12,23.71c-0.25,0-0.5-0.05-0.74-0.14c-1.03-0.41-1.53-1.57-1.12-2.6c1.54-3.88,0.63-8.29-2.32-11.24
	c-3.12-3.12-7.9-3.94-11.88-2.04c-1,0.48-2.19,0.06-2.67-0.94c-0.48-1-0.06-2.19,0.94-2.67c5.51-2.64,12.11-1.51,16.43,2.82
	c4.08,4.08,5.34,10.18,3.21,15.54C42.67,23.23,41.92,23.71,41.12,23.71z"/>
<path class="st1" d="M6.09,22.67c0.25,0,0.5,0.05,0.74,0.14c1.03,0.41,1.53,1.57,1.12,2.6c-1.54,3.88-0.63,8.29,2.32,11.24
	c3.12,3.12,7.9,3.94,11.88,2.04c1-0.48,2.19-0.06,2.67,0.94c0.48,1,0.06,2.19-0.94,2.67c-5.51,2.64-12.11,1.51-16.43-2.82
	C3.35,35.4,2.09,29.3,4.23,23.94C4.54,23.15,5.29,22.67,6.09,22.67z"/>
</svg>
