<svg xmlns="http://www.w3.org/2000/svg" xmlns:xlink="http://www.w3.org/1999/xlink" id="Layer_1" x="0" y="0" version="1.1" viewBox="0 0 48 48" xml:space="preserve" style="enable-background:new 0 0 48 48"><style type="text/css">.st0{fill:#bababa}.st1{fill:#056b5c}.st2,.st3{fill:none;stroke:#fff;stroke-width:2;stroke-linecap:round;stroke-linejoin:round;stroke-miterlimit:10}.st3{stroke:#969696}</style><path d="M46,13H2c-1.1,0-2-0.9-2-2V2c0-1.1,0.9-2,2-2h44c1.1,0,2,0.9,2,2v9C48,12.1,47.1,13,46,13z" class="st0"/><path d="M46,30.5H2c-1.1,0-2-0.9-2-2v-9c0-1.1,0.9-2,2-2h44c1.1,0,2,0.9,2,2v9C48,29.6,47.1,30.5,46,30.5z" class="st0"/><path d="M46,48H2c-1.1,0-2-0.9-2-2v-9c0-1.1,0.9-2,2-2h44c1.1,0,2,0.9,2,2v9C48,47.1,47.1,48,46,48z" class="st0"/><path d="M2,13h11V0H2C0.9,0,0,0.9,0,2v9C0,12.1,0.9,13,2,13z" class="st1"/><path d="M2,48h11V35H2c-1.1,0-2,0.9-2,2v9C0,47.1,0.9,48,2,48z" class="st1"/><path d="M2,30.5h11v-13H2c-1.1,0-2,0.9-2,2v9C0,29.6,0.9,30.5,2,30.5z" class="st1"/><polyline points="3.7 23.93 6.84 26.6 10 21.29" class="st2"/><polyline points="3.7 6.43 6.84 9.1 10 3.79" class="st2"/><polyline points="3.7 41.43 6.84 44.1 10 38.79" class="st2"/><line x1="18" x2="43" y1="4" y2="4" class="st3"/><line x1="18" x2="43" y1="8" y2="8" class="st3"/><line x1="18" x2="43" y1="22" y2="22" class="st3"/><line x1="18" x2="43" y1="26" y2="26" class="st3"/><line x1="18" x2="43" y1="40" y2="40" class="st3"/><line x1="18" x2="43" y1="44" y2="44" class="st3"/></svg>